<?xml version="1.0" standalone="no"?>
<!DOCTYPE svg PUBLIC "-//W3C//DTD SVG 20010904//EN"
 "http://www.w3.org/TR/2001/REC-SVG-20010904/DTD/svg10.dtd">
<svg version="1.0" xmlns="http://www.w3.org/2000/svg"
 width="735.000000pt" height="734.000000pt" viewBox="0 0 735.000000 734.000000"
 preserveAspectRatio="xMidYMid meet">

<g transform="translate(0.000000,734.000000) scale(0.100000,-0.100000)"
fill="#000000" stroke="none">
<path d="M0 7050 c0 -159 2 -290 3 -290 2 0 24 18 48 41 24 23 71 64 103 93
33 28 87 76 120 106 69 63 275 221 381 292 l70 48 -362 0 -363 0 0 -290z"/>
<path d="M7029 7312 c83 -65 181 -149 243 -208 37 -35 70 -64 73 -64 3 0 5 68
5 150 l0 150 -177 0 -178 -1 34 -27z"/>
<path d="M550 6709 c-83 -62 -258 -231 -357 -342 -96 -108 -195 -246 -191
-268 2 -17 8 -13 31 24 16 25 36 53 45 63 10 11 47 57 84 104 67 86 225 253
308 326 62 54 149 122 162 126 6 2 9 10 7 17 -3 9 -33 -8 -89 -50z"/>
<path d="M3150 6394 c-88 -24 -154 -58 -253 -132 -50 -39 -127 -90 -169 -115
-42 -25 -118 -78 -170 -119 -51 -41 -116 -88 -144 -105 -125 -75 -331 -154
-547 -209 -173 -44 -292 -115 -405 -241 -413 -461 -517 -619 -593 -897 -16
-61 -21 -112 -23 -232 l-3 -154 -70 -98 c-195 -272 -386 -629 -478 -892 -120
-347 -137 -729 -49 -1085 41 -164 122 -400 195 -567 133 -306 176 -380 385
-653 41 -55 257 -271 350 -351 145 -125 313 -238 579 -391 191 -110 279 -153
312 -153 21 0 5 12 -67 48 -149 76 -388 214 -528 305 -391 257 -742 637 -910
987 -107 225 -170 378 -217 530 -104 331 -126 456 -126 699 0 161 8 230 47
427 37 181 92 321 238 604 97 188 258 450 322 522 l33 37 17 -52 c50 -155 151
-284 268 -345 70 -36 74 -37 191 -38 66 -1 129 -2 141 -3 11 -1 58 -25 105
-55 127 -80 225 -100 357 -72 76 17 84 9 57 -61 -39 -101 -174 -236 -428 -426
-60 -45 -210 -197 -245 -248 -53 -78 -75 -145 -76 -229 -1 -91 15 -123 77
-150 91 -40 359 -54 550 -30 117 14 362 64 527 106 103 27 646 117 657 109 1
0 -20 -19 -48 -40 -197 -154 -267 -217 -306 -277 -49 -73 -73 -136 -75 -194
-1 -87 14 -99 129 -95 72 2 147 -12 158 -28 3 -5 -1 -38 -8 -73 -9 -39 -11
-86 -7 -123 4 -33 5 -101 2 -150 -4 -87 -3 -92 22 -123 17 -19 44 -36 68 -42
33 -10 43 -18 59 -55 11 -24 24 -77 29 -118 11 -92 50 -201 84 -236 90 -94
215 -93 334 4 31 25 54 35 78 35 41 0 54 -18 83 -116 12 -39 31 -80 44 -92 37
-35 102 -52 201 -53 50 0 99 -3 108 -7 10 -4 32 -32 50 -62 53 -87 145 -120
335 -120 81 0 84 1 123 36 21 20 50 59 63 87 58 127 102 171 185 183 59 9 108
53 144 129 15 33 28 66 28 73 0 24 34 72 50 72 24 0 56 -38 79 -92 24 -56 40
-60 108 -27 98 48 161 128 229 296 9 23 23 44 30 47 17 7 54 -40 54 -70 0 -81
51 -187 80 -169 6 4 33 41 62 83 28 42 88 115 133 162 117 121 167 217 200
383 19 93 26 107 102 189 92 100 114 182 72 263 -11 22 -59 79 -106 126 -50
51 -83 92 -78 98 3 6 2 10 -4 9 -15 -4 -107 99 -124 140 -49 114 -55 239 -23
457 51 337 25 470 -121 626 -35 36 -91 84 -125 107 -99 64 -100 66 -83 104 29
66 105 288 121 355 34 147 -13 266 -130 325 -58 30 -149 20 -384 -41 -105 -27
-201 -47 -212 -44 -13 4 -22 17 -26 42 -42 240 -146 465 -281 607 -53 56 -177
151 -274 210 l-62 38 36 12 c63 22 236 37 357 31 168 -8 495 -78 659 -141 156
-60 429 -212 571 -317 105 -78 265 -233 353 -342 270 -332 396 -639 532 -1297
20 -96 51 -242 70 -325 82 -365 109 -580 102 -815 -5 -162 -12 -216 -63 -452
-49 -226 -155 -530 -261 -748 -153 -313 -298 -489 -613 -747 -180 -147 -370
-260 -585 -349 -18 -7 -17 -8 8 -12 61 -8 363 162 557 312 106 83 128 103 269
245 74 75 138 135 143 133 5 -1 6 2 3 9 -4 6 4 23 18 37 82 88 253 402 322
592 150 413 222 712 232 965 7 180 -17 415 -63 630 -35 159 -86 399 -125 590
-11 55 -27 127 -35 160 -8 33 -23 98 -33 145 -51 232 -188 554 -324 763 -133
203 -385 459 -567 574 -82 52 -248 150 -320 189 -137 75 -372 151 -580 189
-52 9 -111 22 -130 27 -19 5 -98 12 -175 15 -119 4 -161 1 -280 -20 l-140 -25
-45 23 -45 23 -17 101 c-30 172 -129 388 -224 486 -102 106 -271 196 -424 225
-118 23 -184 24 -260 4z m120 -24 c-52 -3 -123 -14 -158 -24 -60 -19 -62 -20
-40 -32 21 -12 20 -13 -14 -7 -30 4 -42 0 -72 -23 -30 -25 -33 -30 -18 -36 16
-6 16 -7 -1 -7 -11 -1 -15 -6 -11 -12 5 -8 1 -8 -14 0 -26 14 -35 14 -27 1 3
-5 1 -10 -4 -10 -22 0 -10 19 27 41 20 13 39 27 40 31 5 12 94 56 123 62 13 2
35 9 49 14 14 6 68 10 120 9 l95 -1 -95 -6z m147 -6 c-3 -3 -12 -4 -19 -1 -8
3 -5 6 6 6 11 1 17 -2 13 -5z m-47 -14 c-8 -5 -24 -9 -35 -9 -16 1 -16 2 5 9
35 11 48 11 30 0z m120 -1 c11 -8 8 -9 -13 -4 -22 4 -27 3 -21 -7 5 -7 10 -23
11 -35 3 -17 -1 -20 -16 -16 -19 5 -19 6 -4 21 10 11 12 17 4 20 -6 2 -11 10
-11 18 0 16 29 18 50 3z m-323 -15 c-3 -3 -12 -4 -19 -1 -8 3 -5 6 6 6 11 1
17 -2 13 -5z m260 0 c-3 -3 -12 -4 -19 -1 -8 3 -5 6 6 6 11 1 17 -2 13 -5z
m-303 -13 c15 -6 16 -9 5 -13 -8 -3 -20 1 -27 8 -14 15 -7 17 22 5z m419 2
c-7 -2 -19 -2 -25 0 -7 3 -2 5 12 5 14 0 19 -2 13 -5z m-113 -13 c-8 -5 -24
-9 -35 -9 l-20 0 20 9 c11 5 27 9 35 9 13 1 13 0 0 -9z m155 -8 c-3 -3 -11 0
-18 7 -9 10 -8 11 6 5 10 -3 15 -9 12 -12z m-398 2 c-3 -3 -12 -4 -19 -1 -8 3
-5 6 6 6 11 1 17 -2 13 -5z m346 -1 c-7 -2 -19 -2 -25 0 -7 3 -2 5 12 5 14 0
19 -2 13 -5z m-416 -19 c-3 -3 -12 -4 -19 -1 -8 3 -5 6 6 6 11 1 17 -2 13 -5z
m543 -20 c0 -2 -9 0 -20 6 -11 6 -20 13 -20 16 0 2 9 0 20 -6 11 -6 20 -13 20
-16z m5 -32 c-3 -3 -11 1 -20 8 -8 7 -21 10 -29 7 -10 -4 -13 -1 -9 8 4 13 9
12 34 -2 15 -9 26 -19 24 -21z m37 -14 c-6 -22 -6 -22 -10 -3 -2 11 -9 26 -16
34 -9 12 -8 12 11 3 16 -9 20 -18 15 -34z m-672 28 c0 -3 -4 -8 -10 -11 -5 -3
-10 -1 -10 4 0 6 5 11 10 11 6 0 10 -2 10 -4z m554 -18 c-7 -11 -34 -10 -34 1
0 6 9 9 19 8 11 0 17 -5 15 -9z m43 -4 c-3 -3 -12 -4 -19 -1 -8 3 -5 6 6 6 11
1 17 -2 13 -5z m186 -80 c32 -32 65 -70 73 -86 8 -15 25 -43 38 -63 26 -37 82
-193 73 -201 -3 -3 -8 9 -12 27 -6 24 -9 28 -17 18 -8 -11 -9 -10 -4 3 3 10 1
28 -4 40 -5 13 -9 19 -9 14 -1 -12 -31 14 -31 27 0 6 7 2 15 -9 12 -16 14 -16
15 -3 0 9 -7 22 -15 29 -8 7 -14 18 -13 24 4 18 -45 94 -67 105 -12 6 -14 10
-6 10 19 1 -16 41 -36 41 -8 0 -12 4 -8 9 6 10 -13 26 -30 26 -5 0 -10 6 -10
12 0 7 -10 20 -22 28 -13 9 -23 21 -23 27 0 13 13 3 93 -78z m-933 33 c0 -5
-9 -5 -20 -2 -11 4 -20 2 -20 -4 0 -6 -10 -11 -22 -11 -23 1 -23 1 2 15 27 15
60 16 60 2z m860 -17 c-8 -5 -22 -9 -30 -9 -10 0 -8 3 5 9 27 12 43 12 25 0z
m-863 -6 c-3 -3 -12 -4 -19 -1 -8 3 -5 6 6 6 11 1 17 -2 13 -5z m-117 -29
c-11 -13 -9 -15 11 -13 18 2 24 -2 25 -19 1 -14 -3 -20 -13 -16 -7 3 -21 -1
-31 -8 -15 -13 -16 -12 -3 4 9 12 10 17 2 17 -7 0 -9 5 -5 11 11 18 -33 1 -81
-32 -31 -21 -42 -35 -39 -47 4 -12 3 -13 -3 -4 -7 9 -14 7 -30 -10 -11 -13
-35 -31 -53 -41 -18 -10 -30 -21 -26 -24 3 -4 12 -1 18 5 15 15 28 15 28 1 0
-5 -4 -8 -9 -5 -5 3 -14 -1 -21 -9 -14 -17 -35 -21 -25 -5 3 6 2 10 -4 10 -11
0 -24 -18 -27 -38 -2 -8 -6 -17 -10 -20 -4 -4 -4 1 -1 11 9 23 2 22 -37 -8
-18 -14 -36 -23 -39 -20 -4 3 -3 0 2 -6 6 -8 15 -8 29 0 33 18 39 13 9 -7 -15
-10 -25 -21 -23 -23 10 -10 -38 -8 -56 2 -14 8 -27 5 -53 -10 -19 -11 -32 -14
-29 -8 3 7 35 25 72 42 76 33 129 68 257 170 116 92 201 144 165 100z m994 -4
c11 -4 15 -10 10 -13 -5 -4 -18 0 -29 8 -20 15 -12 17 19 5z m70 -40 c-2 -3
-12 3 -22 13 -16 17 -16 18 5 5 12 -7 20 -15 17 -18z m41 -39 c-3 -3 -11 0
-18 7 -9 10 -8 11 6 5 10 -3 15 -9 12 -12z m85 -197 c0 -5 -5 -3 -10 5 -5 8
-10 20 -10 25 0 6 5 3 10 -5 5 -8 10 -19 10 -25z m-1480 0 c-7 -8 -18 -15 -24
-15 -6 0 -2 7 8 15 25 19 32 19 16 0z m-275 -65 c-3 -5 -14 -10 -23 -9 -14 0
-13 2 3 9 27 11 27 11 20 0z m85 -10 c-8 -5 -19 -10 -25 -10 -5 0 -3 5 5 10 8
5 20 10 25 10 6 0 3 -5 -5 -10z m1738 -45 c0 -16 -2 -15 -8 5 -11 34 -11 60 0
35 5 -11 8 -29 8 -40z m-1883 35 c-3 -5 -14 -10 -23 -9 -14 0 -13 2 3 9 27 11
27 11 20 0z m102 4 c-3 -3 -12 -4 -19 -1 -8 3 -5 6 6 6 11 1 17 -2 13 -5z
m-22 -14 c13 -5 14 -9 5 -9 -8 0 -24 4 -35 9 -13 5 -14 9 -5 9 8 0 24 -4 35
-9z m-155 -14 c0 -2 -9 -6 -20 -9 -11 -3 -18 -1 -14 4 5 9 34 13 34 5z m-90
-26 c-8 -5 -22 -9 -30 -9 -10 0 -8 3 5 9 27 12 43 12 25 0z m-58 -39 c4 -3 -4
-6 -17 -6 -12 0 -21 3 -19 7 2 3 -2 9 -8 12 -7 3 -2 3 12 0 14 -4 28 -9 32
-13z m82 10 c4 -5 -3 -7 -14 -4 -23 6 -26 13 -6 13 8 0 17 -4 20 -9z m83 3
c-3 -3 -12 -4 -19 -1 -8 3 -5 6 6 6 11 1 17 -2 13 -5z m1303 -19 c0 -12 -19
-12 -23 0 -4 9 -1 12 9 8 7 -3 14 -7 14 -8z m-1563 -1 c-3 -3 -12 -4 -19 -1
-8 3 -5 6 6 6 11 1 17 -2 13 -5z m2223 -26 c0 -26 -9 -19 -15 11 -2 12 0 19 6
16 5 -4 9 -16 9 -27z m-2020 12 c0 -5 -4 -10 -10 -10 -5 0 -10 5 -10 10 0 6 5
10 10 10 6 0 10 -4 10 -10z m1950 0 c-8 -5 -19 -10 -25 -10 -5 0 -3 5 5 10 8
5 20 10 25 10 6 0 3 -5 -5 -10z m35 0 c-3 -5 -2 -10 2 -10 5 0 9 -9 9 -20 0
-11 -5 -19 -11 -17 -15 5 -14 57 1 57 3 0 2 -4 -1 -10z m-2250 -10 c3 -6 -1
-7 -9 -4 -9 3 -16 1 -16 -6 0 -6 -5 -8 -11 -4 -8 4 -7 9 2 15 18 11 26 11 34
-1z m1668 3 c-7 -2 -19 -2 -25 0 -7 3 -2 5 12 5 14 0 19 -2 13 -5z m24 -19
c-3 -3 -12 -4 -19 -1 -8 3 -5 6 6 6 11 1 17 -2 13 -5z m389 -5 c249 -45 529
-191 699 -365 89 -91 129 -151 186 -284 41 -96 47 -117 24 -86 -14 18 -14 17
-14 -10 1 -34 -42 -197 -53 -202 -5 -2 -8 -8 -8 -13 0 -5 -16 -41 -35 -80 -19
-39 -32 -76 -28 -82 3 -5 1 -7 -4 -4 -10 6 -25 -14 -27 -36 -1 -4 -7 -12 -15
-16 -7 -5 -10 -14 -7 -20 4 -7 2 -10 -5 -9 -7 2 -18 -7 -24 -20 -7 -13 -24
-35 -37 -50 -14 -15 -24 -33 -23 -40 2 -7 1 -8 -2 -2 -2 5 -22 -4 -43 -22 -22
-17 -37 -35 -33 -41 3 -5 0 -7 -8 -5 -8 3 -23 -2 -34 -12 -29 -26 -184 -105
-243 -124 -29 -10 -52 -22 -52 -27 0 -6 -4 -8 -9 -5 -5 3 -40 -5 -78 -18 -38
-13 -88 -27 -111 -31 -23 -4 -42 -10 -42 -14 0 -5 -12 -6 -26 -3 -18 3 -25 1
-20 -6 4 -7 -2 -10 -16 -10 -43 3 -79 -2 -75 -9 3 -5 -14 -8 -36 -9 -23 0
-105 -5 -182 -12 -130 -11 -266 -6 -415 15 -19 2 -53 5 -75 5 -22 0 -31 3 -20
5 15 4 9 9 -24 19 -29 8 -50 10 -62 3 -10 -5 -24 -9 -31 -8 -7 0 -4 5 7 10 17
8 16 9 -7 6 -15 -2 -25 -1 -23 3 3 4 -13 10 -35 14 -22 3 -40 11 -40 16 0 13
17 13 25 0 3 -5 18 -10 33 -9 23 1 24 2 7 8 -34 11 -169 82 -186 97 -9 8 -20
14 -25 12 -19 -5 -55 14 -50 27 2 7 -3 20 -13 29 -21 19 -35 21 -25 4 4 -8 3
-10 -2 -5 -5 5 -9 12 -9 16 0 11 -45 64 -50 59 -3 -3 5 -18 17 -34 l22 -29
-27 25 c-15 13 -25 30 -22 38 8 21 -6 37 -17 21 -7 -10 -8 -8 -3 7 3 13 0 26
-9 33 -45 38 -117 268 -95 303 5 7 9 24 9 38 0 20 -2 22 -10 10 -5 -8 -10 -11
-10 -7 0 4 7 19 16 33 9 13 17 42 18 64 0 21 4 34 7 28 4 -6 12 7 19 28 7 22
22 54 33 73 14 24 16 32 6 27 -8 -4 -4 1 7 11 30 25 45 58 38 80 -4 12 -3 14
3 6 7 -9 14 -7 27 10 10 12 26 31 35 41 15 18 15 19 -4 12 -24 -9 -13 3 17 19
16 7 22 19 20 34 -2 19 0 21 11 12 11 -8 18 -6 33 10 14 16 16 23 6 26 -10 4
-10 8 -1 19 6 8 17 14 23 14 6 0 4 -4 -4 -10 -8 -5 -11 -13 -6 -17 4 -4 13 -1
19 8 7 8 25 24 40 34 15 10 25 20 22 23 -3 3 -14 -3 -24 -12 -16 -14 -23 -15
-38 -6 -16 10 -16 11 4 7 13 -3 28 2 38 13 9 10 24 16 33 13 13 -4 14 -3 4 5
-10 7 -7 13 13 26 14 9 30 14 36 11 5 -4 21 4 35 18 18 18 21 27 12 31 -7 3
-1 4 13 1 18 -3 29 0 33 10 3 8 15 15 26 15 11 0 20 5 20 11 0 5 6 7 13 3 8
-5 8 -2 -2 9 -12 15 -11 17 3 17 9 0 16 -4 16 -9 0 -5 15 -2 34 7 19 9 34 20
33 26 -1 5 7 11 18 13 16 3 17 2 5 -6 -22 -15 -7 -13 25 3 18 9 22 16 13 20
-7 3 -3 3 10 0 13 -3 28 -2 35 3 7 5 38 18 70 28 43 15 53 21 40 27 -13 5 -14
7 -3 7 13 1 13 2 0 11 -12 8 -12 10 -1 10 8 0 19 -7 25 -15 13 -17 80 -10 70
7 -4 6 2 8 14 4 11 -4 36 0 55 7 29 13 95 26 197 41 57 8 231 5 286 -5z m-441
-9 c-27 -12 -43 -12 -25 0 8 5 22 9 30 9 10 0 8 -3 -5 -9z m-1722 -20 c-7 -8
-52 -7 -47 1 2 4 15 6 28 5 13 0 22 -3 19 -6z m1497 -24 c0 -2 -11 -6 -25 -8
-13 -3 -22 -1 -19 3 5 9 44 13 44 5z m-1578 -18 c-9 -9 -9 -15 0 -27 7 -9 8
-13 4 -9 -5 4 -15 3 -23 -3 -10 -9 -13 -8 -13 0 0 7 -4 9 -10 6 -19 -12 -10 7
13 26 24 20 48 26 29 7z m1555 -14 c-3 -3 -12 -4 -19 -1 -8 3 -5 6 6 6 11 1
17 -2 13 -5z m-227 -54 c0 -5 -4 -10 -10 -10 -5 0 -10 5 -10 10 0 6 5 10 10
10 6 0 10 -4 10 -10z m-1420 -10 c0 -5 -5 -10 -11 -10 -5 0 -7 5 -4 10 3 6 8
10 11 10 2 0 4 -4 4 -10z m1447 -16 c-3 -3 -12 -4 -19 -1 -8 3 -5 6 6 6 11 1
17 -2 13 -5z m-1458 -27 c0 -8 -2 -8 -6 1 -4 10 -8 10 -21 0 -15 -12 -16 -11
-3 4 14 19 32 15 30 -5z m1278 -43 c-3 -3 -12 -4 -19 -1 -8 3 -5 6 6 6 11 1
17 -2 13 -5z m-1353 -19 c-4 -8 -10 -15 -15 -15 -5 0 -9 -6 -9 -12 0 -7 -17
-26 -38 -43 -35 -28 -34 -27 12 28 53 61 59 66 50 42z m1333 -11 c-3 -3 -12
-4 -19 -1 -8 3 -5 6 6 6 11 1 17 -2 13 -5z m-1339 -43 c-7 -12 -16 -21 -21
-21 -4 0 0 11 9 25 20 30 31 26 12 -4z m-93 -61 c-3 -5 -1 -19 5 -31 9 -16 9
-24 -1 -33 -9 -8 -10 -8 -5 1 10 18 -5 45 -22 38 -12 -5 -12 -1 3 15 19 21 30
27 20 10z m1270 -8 c-3 -3 -11 0 -18 7 -9 10 -8 11 6 5 10 -3 15 -9 12 -12z
m-1231 -52 c-6 -6 -10 -3 -10 10 0 13 4 16 10 10 7 -7 7 -13 0 -20z m-87 -2
c2 -17 0 -19 -7 -8 -5 8 -6 18 -4 22 8 12 10 10 11 -14z m33 12 c0 -5 -5 -10
-11 -10 -5 0 -7 5 -4 10 3 6 8 10 11 10 2 0 4 -4 4 -10z m-60 -40 c-6 -11 -16
-20 -22 -20 -6 0 -3 9 7 20 10 11 20 20 22 20 2 0 -1 -9 -7 -20z m34 -46 c3
-8 2 -12 -4 -9 -6 3 -10 10 -10 16 0 14 7 11 14 -7z m1152 -49 c1 -8 -2 -13
-7 -9 -5 3 -9 12 -9 21 0 19 13 9 16 -12z m-1253 -19 c-3 -4 -9 -3 -13 4 -5 9
-9 9 -14 1 -4 -6 -5 -15 -2 -19 2 -4 -4 -8 -14 -8 -17 0 -16 2 4 26 15 19 24
23 32 16 7 -6 10 -15 7 -20z m-63 -77 c0 -4 -4 -11 -10 -14 -5 -3 -10 -1 -10
5 0 6 -5 8 -12 4 -6 -4 -8 -3 -5 3 7 11 37 13 37 2z m-40 -27 c0 -5 -9 -19
-20 -32 -11 -13 -20 -29 -20 -35 0 -7 -7 -18 -15 -25 -8 -6 -13 -22 -12 -33 1
-13 -3 -21 -10 -19 -7 1 -13 -6 -13 -17 0 -10 -7 -24 -15 -31 -8 -7 -15 -9
-15 -6 0 18 107 206 117 206 2 0 3 -4 3 -8z m1279 -32 c11 -24 11 -24 -3 -6
-9 11 -16 24 -16 30 0 12 5 7 19 -24z m-1255 5 c-4 -8 -1 -22 6 -30 9 -10 9
-15 1 -15 -6 0 -11 5 -11 10 0 6 -8 10 -17 11 -11 0 -13 3 -5 6 6 2 12 11 12
19 0 8 4 14 10 14 5 0 7 -7 4 -15z m1243 -77 c-3 -8 -6 -5 -6 6 -1 11 2 17 5
13 3 -3 4 -12 1 -19z m2440 -85 c-11 -36 -11 -36 -15 -11 -2 14 -9 31 -16 37
-9 8 -15 -1 -25 -40 -7 -28 -15 -48 -17 -46 -6 5 33 147 42 156 3 3 3 -8 0
-26 -4 -18 -3 -34 3 -38 7 -4 11 9 12 37 l0 43 14 -37 c11 -29 11 -45 2 -75z
m20 -25 c-3 -8 -6 -5 -6 6 -1 11 2 17 5 13 3 -3 4 -12 1 -19z m-3851 -18 c-3
-11 -9 -30 -12 -41 -4 -14 -2 -19 5 -15 6 4 11 3 11 -3 0 -5 -4 -13 -10 -16
-5 -3 -10 0 -10 7 0 9 -3 9 -10 -2 -14 -21 -12 -10 6 43 15 46 31 67 20 27z
m3861 -37 c-3 -10 -5 -4 -5 12 0 17 2 24 5 18 2 -7 2 -21 0 -30z m536 0 c-7
-2 -19 -2 -25 0 -7 3 -2 5 12 5 14 0 19 -2 13 -5z m156 -28 c41 -35 68 -82 75
-130 6 -39 5 -39 -4 -7 -6 17 -15 32 -21 32 -6 0 -7 5 -4 10 10 17 -6 34 -17
19 -6 -10 -7 -7 -3 9 4 13 2 22 -4 22 -6 0 -11 6 -11 13 0 9 -11 13 -30 12
-16 -1 -27 2 -24 7 4 5 13 7 21 4 8 -4 11 -1 7 5 -3 6 -15 9 -25 6 -11 -3 -17
-1 -14 3 3 5 -7 11 -22 13 -23 3 -22 4 9 6 26 1 45 -6 67 -24z m-146 8 c-7 -2
-21 -2 -30 0 -10 3 -4 5 12 5 17 0 24 -2 18 -5z m-4443 -73 c-16 -40 -23 -33
-9 9 6 18 14 30 17 27 2 -3 -1 -19 -8 -36z m4180 36 c0 -2 -7 -7 -16 -10 -8
-3 -12 -2 -9 4 6 10 25 14 25 6z m-45 -16 c3 -6 -1 -7 -9 -4 -18 7 -21 14 -7
14 6 0 13 -4 16 -10z m-51 -14 c-21 -15 -30 -14 -19 3 3 6 14 11 23 11 13 0
13 -2 -4 -14z m-324 0 c0 -2 -7 -9 -15 -16 -13 -11 -14 -10 -9 4 5 14 24 23
24 12z m10 -36 c0 -5 -5 -10 -11 -10 -5 0 -7 5 -4 10 3 6 8 10 11 10 2 0 4 -4
4 -10z m-2405 -44 c0 -25 -3 -40 -7 -33 -13 20 -8 78 6 77 1 0 1 -20 1 -44z
m2582 -38 c-2 -13 -4 -3 -4 22 0 25 2 35 4 23 2 -13 2 -33 0 -45z m-3970 5
c-3 -10 -5 -4 -5 12 0 17 2 24 5 18 2 -7 2 -21 0 -30z m3990 5 c-3 -8 -6 -5
-6 6 -1 11 2 17 5 13 3 -3 4 -12 1 -19z m700 -50 c1 -43 1 -43 -6 -8 -6 31 -5
50 3 50 1 0 3 -19 3 -42z m-760 -15 c-3 -10 -5 -2 -5 17 0 19 2 27 5 18 2 -10
2 -26 0 -35z m-2486 -10 c-12 -20 -14 -14 -5 12 4 9 9 14 11 11 3 -2 0 -13 -6
-23z m3206 -25 c-3 -8 -6 -5 -6 6 -1 11 2 17 5 13 3 -3 4 -12 1 -19z m19 -68
l-15 -45 5 40 c8 55 17 84 21 65 2 -8 -3 -35 -11 -60z m-3215 10 c5 0 9 10 9
23 0 18 2 19 10 7 14 -22 12 -40 -6 -47 -19 -7 -34 13 -32 42 1 17 1 17 5 -2
2 -13 9 -23 14 -23z m2496 3 c1 -19 -1 -22 -8 -12 -7 11 -9 11 -9 1 0 -7 -4
-11 -10 -7 -5 3 -2 14 8 25 9 11 17 20 17 20 0 0 1 -12 2 -27z m694 -90 c-8
-15 -10 -15 -11 -2 0 17 10 32 18 25 2 -3 -1 -13 -7 -23z m-3096 -5 c5 -4 0
-6 -13 -5 -22 1 -27 8 -15 20 3 4 9 4 12 0 3 -4 10 -11 16 -15z m-1478 -40
c-3 -8 -6 -5 -6 6 -1 11 2 17 5 13 3 -3 4 -12 1 -19z m4552 -17 c-6 -18 -13
-30 -15 -28 -2 2 1 18 7 36 6 18 13 30 15 28 2 -2 -1 -18 -7 -36z m-4622 7
c-3 -8 -6 -5 -6 6 -1 11 2 17 5 13 3 -3 4 -12 1 -19z m1578 11 c10 -14 1 -21
-19 -13 -9 3 -13 10 -10 15 7 12 21 11 29 -2z m3016 -20 c-5 -13 -10 -19 -10
-12 -1 15 10 45 15 40 3 -2 0 -15 -5 -28z m-4571 -24 c-6 -15 -13 -25 -16 -23
-2 3 1 17 7 32 16 34 23 27 9 -9z m30 -40 c0 -5 -5 -3 -10 5 -5 8 -10 20 -10
25 0 6 5 3 10 -5 5 -8 10 -19 10 -25z m4003 18 c-13 -2 -33 -2 -45 0 -13 2 -3
4 22 4 25 0 35 -2 23 -4z m531 -48 c-23 -66 -24 -68 -29 -63 -3 3 2 21 10 41
17 42 19 61 5 52 -5 -3 -10 -2 -10 4 0 5 8 9 19 8 17 -1 18 -4 5 -42z m-4554
0 c0 -5 -5 -3 -10 5 -5 8 -10 20 -10 25 0 6 5 3 10 -5 5 -8 10 -19 10 -25z
m1670 -1 c0 -8 -4 -14 -10 -14 -5 0 -10 4 -10 9 0 5 -3 18 -7 28 -6 16 -5 16
10 4 9 -7 17 -20 17 -27z m1607 30 c-3 -3 -12 -4 -19 -1 -8 3 -5 6 6 6 11 1
17 -2 13 -5z m-1532 -22 c-3 -3 -11 0 -18 7 -9 10 -8 11 6 5 10 -3 15 -9 12
-12z m1490 8 c3 -6 -1 -7 -9 -4 -18 7 -21 14 -7 14 6 0 13 -4 16 -10z m-35
-10 c0 -5 -10 -10 -22 -10 -19 0 -20 2 -8 10 19 13 30 13 30 0z m-3163 -32
c-3 -7 -5 -2 -5 12 0 14 2 19 5 13 2 -7 2 -19 0 -25z m1753 22 c8 -5 11 -10 5
-10 -5 0 -17 5 -25 10 -8 5 -10 10 -5 10 6 0 17 -5 25 -10z m-1761 -65 c0 -5
-6 1 -14 15 -8 14 -14 30 -14 35 0 6 6 -1 14 -15 8 -14 14 -29 14 -35z m3571
45 c13 -8 13 -10 -2 -10 -9 0 -20 5 -23 10 -8 13 5 13 25 0z m745 -40 c175
-44 272 -97 386 -210 162 -160 186 -273 134 -620 -34 -229 -31 -317 19 -459
14 -41 14 -46 -3 -70 -26 -39 -40 -78 -56 -163 -18 -97 -45 -154 -94 -202
l-38 -38 -7 26 c-15 59 -58 25 -148 -114 -30 -47 -70 -102 -88 -123 -90 -102
-248 -190 -455 -250 -66 -20 -169 -57 -230 -82 -285 -120 -257 -115 -336 -59
-139 97 -200 101 -289 18 -44 -41 -51 -44 -104 -44 -69 0 -189 44 -258 95 -86
63 -193 218 -252 365 -29 72 -30 81 -31 235 0 153 -1 162 -27 215 -76 157 -90
274 -49 410 59 194 179 366 392 565 161 150 257 214 526 349 142 71 351 141
478 160 55 9 114 17 130 20 73 11 321 -4 400 -24z m105 10 c8 -5 11 -10 5 -10
-5 0 -17 5 -25 10 -8 5 -10 10 -5 10 6 0 17 -5 25 -10z m-2640 -6 c0 -8 -19
-13 -24 -6 -3 5 1 9 9 9 8 0 15 -2 15 -3z m1197 0 c-3 -3 -12 -4 -19 -1 -8 3
-5 6 6 6 11 1 17 -2 13 -5z m-49 -11 c-10 -2 -18 -9 -18 -14 0 -6 -5 -7 -11
-3 -14 8 8 24 31 23 11 -1 10 -3 -2 -6z m579 1 c-3 -3 -12 -4 -19 -1 -8 3 -5
6 6 6 11 1 17 -2 13 -5z m-3452 -35 c-3 -4 5 -26 17 -48 15 -28 25 -38 32 -31
5 5 17 10 26 9 11 0 11 -2 2 -6 -10 -4 -9 -9 4 -24 9 -10 20 -17 24 -14 3 2 6
-6 5 -18 -1 -12 -6 -20 -11 -17 -5 2 -8 11 -6 19 2 9 -2 12 -13 7 -18 -7 -75
46 -75 70 0 8 -4 13 -8 10 -4 -2 -13 4 -20 15 -8 12 -9 19 -1 19 5 0 8 4 5 8
-3 5 1 9 9 9 8 0 12 -4 10 -8z m3319 -26 c3 -7 0 -15 -6 -19 -6 -4 -8 -3 -5 3
4 6 -7 16 -23 23 -17 7 -30 16 -30 20 0 12 59 -12 64 -27z m-1274 5 c0 -10
-29 -9 -55 2 -15 6 -11 8 17 7 21 -1 38 -5 38 -9z m555 2 c-3 -5 -12 -10 -18
-10 -7 0 -6 4 3 10 19 12 23 12 15 0z m752 4 c-3 -3 -12 -4 -19 -1 -8 3 -5 6
6 6 11 1 17 -2 13 -5z m-1262 -14 c3 -5 2 -10 -4 -10 -5 0 -13 5 -16 10 -3 6
-2 10 4 10 5 0 13 -4 16 -10z m342 -6 c-3 -3 -12 -4 -19 -1 -8 3 -5 6 6 6 11
1 17 -2 13 -5z m833 -9 c-14 -17 -30 -20 -30 -4 0 5 5 7 10 4 6 -3 10 -1 10 4
0 6 5 11 11 11 8 0 8 -5 -1 -15z m-1203 -1 c-3 -3 -12 -4 -19 -1 -8 3 -5 6 6
6 11 1 17 -2 13 -5z m-48 -8 c-2 -2 -17 -6 -34 -10 -22 -5 -26 -4 -15 4 14 9
59 15 49 6z m96 -6 c-3 -5 -11 -10 -16 -10 -6 0 -7 5 -4 10 3 6 11 10 16 10 6
0 7 -4 4 -10z m555 0 c-8 -5 -22 -10 -30 -10 -13 0 -13 1 0 10 8 5 22 10 30
10 13 0 13 -1 0 -10z m-57 -7 c-7 -2 -21 -2 -30 0 -10 3 -4 5 12 5 17 0 24 -2
18 -5z m-1663 -18 c11 -13 10 -14 -5 -9 -15 6 -14 2 6 -25 22 -29 25 -31 36
-15 7 10 13 13 13 7 0 -7 -5 -15 -10 -18 -7 -4 -6 -13 1 -26 5 -11 9 -23 7
-27 -2 -4 -22 21 -46 56 -24 35 -38 61 -33 57 6 -3 11 -1 11 4 0 15 5 14 20
-4z m40 5 c0 8 3 11 6 8 3 -4 -2 -19 -11 -35 -9 -15 -14 -20 -10 -9 3 10 0 26
-7 35 -12 14 -11 14 5 2 13 -11 17 -11 17 -1z m2245 -8 c-3 -3 -11 0 -18 7 -9
10 -8 11 6 5 10 -3 15 -9 12 -12z m-115 4 c0 -3 -4 -8 -10 -11 -5 -3 -10 -1
-10 4 0 6 5 11 10 11 6 0 10 -2 10 -4z m30 -21 c-7 -8 -17 -15 -22 -15 -6 0
-5 7 2 15 7 8 17 15 22 15 6 0 5 -7 -2 -15z m-2280 -1 c0 -3 -7 -12 -15 -20
-16 -17 -18 -14 -9 10 6 15 24 23 24 10z m2240 -18 c0 -3 -4 -8 -10 -11 -5 -3
-10 -1 -10 4 0 6 5 11 10 11 6 0 10 -2 10 -4z m-2179 -23 c13 -16 12 -17 -3
-5 -9 8 -23 10 -29 6 -8 -4 -9 -3 -5 4 10 17 21 15 37 -5z m-723 -20 c15 -15
15 -16 1 -11 -9 3 -22 2 -30 -3 -12 -7 -12 -9 0 -9 8 0 12 -3 9 -6 -4 -3 -16
-1 -27 6 -26 14 -17 33 11 24 14 -4 18 -2 14 5 -11 17 3 13 22 -6z m107 1 c37
-3 44 -1 25 5 -23 8 -23 9 -4 10 12 1 27 -6 34 -14 11 -13 6 -15 -33 -15 -24
0 -60 -2 -78 -5 -29 -4 -30 -3 -9 4 23 8 24 9 3 10 -12 1 -25 6 -29 13 -5 8 0
9 17 4 13 -4 47 -9 74 -12z m165 5 c0 -5 -14 -9 -31 -9 -16 0 -28 3 -26 8 7
10 57 12 57 1z m225 1 c3 -6 -1 -7 -9 -4 -18 7 -21 14 -7 14 6 0 13 -4 16 -10z
m-200 -20 c-3 -5 -21 -10 -38 -9 -31 1 -31 1 -7 9 36 11 52 11 45 0z m460 -19
c13 -26 13 -29 -1 -27 -9 1 -21 11 -26 21 -8 14 -8 16 2 10 10 -6 12 -4 7 8
-10 28 1 19 18 -12z m-610 -2 c-56 -5 -46 -6 48 -4 106 2 119 0 128 -16 11
-22 9 -22 -25 -9 -14 5 -81 10 -148 11 -109 1 -120 3 -98 15 15 8 52 13 95 12
l70 -2 -70 -7z m249 -24 c4 -10 -1 -15 -15 -15 -11 0 -17 -4 -14 -10 7 -11 -8
-14 -18 -4 -6 6 23 44 34 44 4 0 9 -7 13 -15z m52 -20 c-16 -9 -34 -14 -40
-11 -6 2 0 8 14 14 39 16 59 14 26 -3z m367 -5 c-3 -12 -8 -19 -11 -16 -5 6 5
36 12 36 2 0 2 -9 -1 -20z m1865 -5 c1 -1 -6 -8 -15 -16 -10 -7 -15 -9 -10 -4
4 4 -1 17 -10 28 -18 19 -17 20 7 7 14 -7 26 -14 28 -15z m37 15 c-3 -5 -11
-10 -16 -10 -6 0 -7 5 -4 10 3 6 11 10 16 10 6 0 7 -4 4 -10z m14 -19 c-13
-11 -26 -17 -28 -15 -5 5 30 33 43 34 4 0 -2 -9 -15 -19z m-2265 -26 c3 -8 2
-15 -3 -15 -5 0 -14 7 -21 15 -10 12 -10 15 3 15 8 0 17 -7 21 -15z m263 -17
c-3 -7 -5 -2 -5 12 0 14 2 19 5 13 2 -7 2 -19 0 -25z m-292 2 c19 -21 89 -45
105 -35 5 3 11 1 15 -5 9 -15 -40 -12 -81 5 -45 18 -92 55 -72 55 8 0 23 -9
33 -20z m394 -44 c1 -42 -5 -29 -12 24 -4 30 -3 38 3 25 5 -11 9 -33 9 -49z
m-42 32 c-3 -8 -6 -5 -6 6 -1 11 2 17 5 13 3 -3 4 -12 1 -19z m-251 -10 c-9
-5 -23 -5 -32 0 -12 6 -7 9 16 9 23 0 28 -3 16 -9z m178 -20 c-3 -4 -15 -8
-27 -7 -20 1 -20 2 3 9 14 4 19 8 12 9 -7 1 -10 6 -6 12 4 8 9 7 15 -2 4 -7 5
-17 3 -21z m1866 17 c0 -2 -6 -5 -13 -8 -8 -3 -14 1 -14 8 0 7 6 11 14 8 7 -3
13 -6 13 -8z m-1960 -5 c20 -6 21 -8 5 -8 -11 0 -29 3 -40 8 -25 11 1 11 35 0z
m-7 -27 c-7 -2 -19 -2 -25 0 -7 3 -2 5 12 5 14 0 19 -2 13 -5z m1961 -12 c3
-5 -1 -11 -9 -14 -9 -4 -12 -1 -8 9 6 16 10 17 17 5z m-1744 -50 c0 -10 -9
-29 -20 -42 l-20 -24 15 30 c8 17 15 36 15 43 0 6 2 12 5 12 3 0 5 -9 5 -19z
m21 -18 c-12 -20 -14 -14 -5 12 4 9 9 14 11 11 3 -2 0 -13 -6 -23z m1645 7 c0
-12 -4 -16 -9 -11 -5 5 -6 14 -3 20 10 15 12 14 12 -9z m-46 -60 c-5 -8 -24
-30 -43 -48 -25 -24 -37 -30 -42 -21 -5 7 -4 10 2 6 6 -4 24 9 41 28 20 22 28
37 21 41 -6 4 -15 1 -19 -6 -5 -8 -10 -9 -14 -2 -7 12 10 20 41 18 15 -1 19
-5 13 -16z m-1664 -42 c1 -36 0 -39 -7 -19 -8 19 -4 61 4 61 1 0 3 -19 3 -42z
m-29 -29 c1 -12 -1 -18 -4 -15 -4 3 -20 -6 -37 -21 -28 -26 -27 -25 5 14 19
24 34 43 34 43 1 0 1 -10 2 -21z m1603 -30 c0 -4 -5 -11 -12 -15 -6 -4 -8 -3
-5 4 9 14 -3 43 -15 36 -5 -3 -7 -13 -3 -23 5 -12 4 -13 -6 -4 -10 10 -9 16 1
28 13 16 15 15 27 -1 7 -10 13 -21 13 -25z m-1586 -12 c-7 -18 -32 -30 -45
-21 -15 9 10 34 27 27 8 -3 14 1 14 8 0 7 2 10 5 7 3 -3 3 -12 -1 -21z m-68
-48 c0 -10 -3 -16 -7 -14 -3 3 -14 -4 -23 -14 -10 -10 -14 -21 -9 -23 4 -3 1
-3 -7 0 -8 2 -21 5 -27 5 -19 1 -16 7 15 38 30 30 58 34 58 8z m1556 9 c-18
-18 -15 -28 6 -21 15 6 15 5 3 -10 -8 -10 -15 -16 -16 -15 -12 14 -25 49 -17
44 6 -3 13 -2 17 4 3 5 9 10 13 10 3 0 1 -5 -6 -12z m58 -2 c0 -2 -8 -10 -17
-17 -16 -13 -17 -12 -4 4 13 16 21 21 21 13z m-1720 -71 c-9 -11 -9 -15 -1
-15 7 0 9 -5 5 -11 -5 -8 -8 -8 -13 0 -5 7 -25 -4 -57 -31 -27 -24 -61 -51
-74 -60 -21 -15 -23 -19 -10 -27 9 -7 10 -11 3 -11 -6 0 -15 5 -18 10 -4 6
-12 7 -18 4 -22 -12 6 11 71 60 35 27 75 59 89 72 29 27 42 32 23 9z m1670 11
c0 -2 -8 -10 -17 -17 -16 -13 -17 -12 -4 4 13 16 21 21 21 13z m-55 -26 c-3
-5 -11 -10 -16 -10 -6 0 -7 5 -4 10 3 6 11 10 16 10 6 0 7 -4 4 -10z m-55 -37
c-11 -17 -11 -17 -6 0 3 10 6 24 7 30 0 9 2 9 5 0 3 -7 0 -20 -6 -30z m80 24
c0 -2 -9 -14 -20 -27 -11 -13 -20 -19 -20 -15 0 5 7 17 17 27 15 17 23 22 23
15z m-58 -44 c-6 -2 -9 -10 -6 -15 4 -7 2 -8 -5 -4 -13 9 -5 26 12 25 9 0 8
-2 -1 -6z m-1635 -19 c-3 -3 -12 -4 -19 -1 -8 3 -5 6 6 6 11 1 17 -2 13 -5z
m1632 -38 c-3 -3 -11 5 -18 17 -13 21 -12 21 5 5 10 -10 16 -20 13 -22z
m-1629 14 c0 -5 -5 -10 -11 -10 -5 0 -7 5 -4 10 3 6 8 10 11 10 2 0 4 -4 4
-10z m1591 -77 c-12 -20 -14 -14 -5 12 4 9 9 14 11 11 3 -2 0 -13 -6 -23z
m-1767 9 c3 -5 -1 -9 -9 -9 -8 0 -12 4 -9 9 3 4 7 8 9 8 2 0 6 -4 9 -8z m1713
-44 c-3 -8 -6 -5 -6 6 -1 11 2 17 5 13 3 -3 4 -12 1 -19z m39 -15 c-10 -10
-19 5 -10 18 6 11 8 11 12 0 2 -7 1 -15 -2 -18z m-1814 10 c-6 -2 -9 -10 -6
-15 4 -7 2 -8 -5 -4 -13 9 -5 26 12 25 9 0 8 -2 -1 -6z m-11 -40 c13 -16 12
-17 -4 -4 -16 13 -22 10 -55 -20 l-37 -34 34 38 c40 42 43 43 62 20z m1805
-39 c-4 -20 -10 -34 -12 -31 -3 3 -2 21 2 41 3 21 9 35 11 32 3 -3 2 -21 -1
-42z m-1828 12 c-7 -8 -15 -12 -17 -11 -5 6 10 25 20 25 5 0 4 -6 -3 -14z
m1799 -31 c-4 -8 -12 -15 -19 -14 -10 0 -10 2 0 6 6 2 12 12 12 21 0 8 3 13 6
9 4 -3 4 -13 1 -22z m-56 -3 c-7 -2 -18 1 -23 6 -8 8 -4 9 13 5 13 -4 18 -8
10 -11z m-1834 -20 c-21 -23 -22 -39 -2 -22 11 9 15 9 15 1 0 -7 5 -9 13 -5 6
4 8 3 4 -2 -4 -4 -20 -8 -34 -9 -20 0 -33 -12 -64 -64 -40 -66 -52 -76 -22
-18 27 53 89 137 101 137 3 0 -2 -8 -11 -18z m1817 -41 c3 -5 -2 -15 -12 -22
-15 -12 -16 -12 -5 2 7 9 10 19 6 22 -3 4 -4 7 0 7 3 0 8 -4 11 -9z m-44 -16
c-7 -9 -15 -13 -19 -10 -3 3 1 10 9 15 21 14 24 12 10 -5z m103 -2 c-4 -10 -2
-14 4 -10 12 7 23 -36 23 -89 0 -29 18 -86 87 -269 12 -31 14 -65 9 -155 -5
-88 -3 -129 8 -173 34 -127 137 -303 240 -410 31 -31 56 -54 56 -50 0 3 8 0
18 -9 9 -8 30 -20 45 -26 15 -7 26 -16 22 -21 -3 -6 3 -10 12 -9 10 0 47 -7
82 -17 72 -19 164 -17 184 5 10 10 9 12 -5 7 -25 -9 -22 0 10 29 48 44 82 57
129 50 36 -5 84 -26 103 -46 10 -10 45 -31 87 -50 40 -19 44 -20 90 -4 26 9
87 34 136 56 48 21 92 36 99 32 6 -4 8 -3 5 3 -4 6 1 13 11 16 9 3 58 20 107
37 50 17 100 29 112 27 12 -2 20 -1 18 3 -3 4 23 18 58 30 108 39 200 85 254
128 54 43 69 51 57 30 -4 -8 -3 -10 2 -5 5 5 9 14 9 20 0 7 6 12 13 12 6 0 12
5 13 10 1 16 21 35 30 29 5 -3 6 1 3 9 -3 8 0 18 7 23 8 5 10 3 4 -6 -5 -9 -4
-11 4 -6 6 4 9 12 5 17 -3 6 2 19 12 30 14 15 20 17 27 7 6 -9 7 -8 3 5 -7 23
3 49 17 40 5 -3 7 -2 4 4 -6 10 28 65 66 107 l24 25 1 -36 c2 -48 18 -65 38
-38 9 11 20 19 25 17 5 -1 8 2 7 6 -2 4 14 28 35 52 21 25 35 36 32 25 -5 -16
-5 -17 3 -5 6 8 9 17 6 21 -2 4 4 27 14 51 11 23 27 84 37 133 19 99 40 149
58 142 7 -3 11 -10 9 -16 -1 -7 2 -10 7 -7 5 3 26 -16 47 -42 21 -26 75 -83
120 -127 45 -44 89 -96 99 -115 27 -51 22 -123 -10 -169 -35 -52 -81 -94 -93
-87 -6 3 -13 0 -15 -6 -3 -7 -6 3 -6 23 -2 71 -14 129 -26 129 -9 0 -12 -12
-9 -37 10 -103 11 -133 4 -133 -4 0 -5 -11 -3 -24 12 -59 -38 -259 -89 -359
-10 -21 -60 -82 -110 -135 -50 -53 -115 -132 -146 -176 l-55 -78 -14 27 c-13
24 -35 124 -37 167 0 9 -2 15 -5 12 -2 -2 -15 5 -27 17 -12 11 -30 19 -41 17
-19 -3 -27 -18 -87 -151 -24 -53 -51 -93 -85 -126 -53 -52 -114 -86 -137 -77
-9 3 -12 1 -9 -4 3 -6 1 -10 -5 -10 -6 0 -13 8 -16 18 -14 47 -48 100 -74 116
-30 17 -30 17 -59 -11 -16 -16 -35 -53 -44 -84 -21 -70 -70 -144 -105 -157
-15 -5 -49 -15 -77 -21 -66 -16 -105 -55 -159 -160 -24 -48 -56 -97 -71 -111
-24 -23 -34 -25 -106 -23 -109 2 -227 22 -258 41 -36 23 -64 55 -86 97 -24 44
-59 55 -178 55 -97 0 -147 15 -171 52 -14 21 -46 132 -49 170 -1 9 -3 15 -5
13 -3 -2 -18 3 -34 11 -44 23 -84 11 -148 -41 -76 -63 -127 -76 -202 -53 -91
27 -147 120 -163 268 -13 125 -41 180 -102 198 -77 23 -75 15 -75 232 0 107 5
210 10 227 8 26 7 36 -4 47 -27 28 -85 39 -171 33 -96 -7 -113 2 -113 62 0 56
28 129 75 196 45 64 96 110 230 210 44 33 108 89 143 125 35 36 67 65 72 65 5
0 12 4 17 9 5 5 3 6 -4 2 -21 -12 -15 4 18 46 19 24 37 37 46 34 8 -4 11 -1 7
5 -4 6 0 15 7 20 19 12 19 11 12 -8z m-133 -38 c0 -5 -5 -3 -10 5 -5 8 -10 20
-10 25 0 6 5 3 10 -5 5 -8 10 -19 10 -25z m24 -10 c-9 -14 -18 -25 -20 -25 -2
0 2 11 8 25 6 14 15 25 20 25 5 0 1 -11 -8 -25z m-30 -31 c3 -8 2 -12 -4 -9
-6 3 -10 10 -10 16 0 14 7 11 14 -7z m-36 -37 c13 4 12 2 -3 -10 -18 -14 -21
-14 -28 -1 -5 9 -5 23 -1 32 6 15 8 14 11 -5 3 -15 9 -20 21 -16z m12 23 c0
-5 -2 -10 -4 -10 -3 0 -8 5 -11 10 -3 6 -1 10 4 10 6 0 11 -4 11 -10z m-1795
-20 c-7 -22 4 -27 22 -9 7 7 12 6 16 -3 3 -10 -3 -14 -22 -13 -14 0 -26 6 -25
13 2 25 4 32 10 32 3 0 2 -9 -1 -20z m-28 -22 c-3 -8 -6 -5 -6 6 -1 11 2 17 5
13 3 -3 4 -12 1 -19z m1760 -3 c-4 -8 -12 -15 -19 -14 -10 0 -10 2 0 6 6 2 12
12 12 21 0 8 3 13 6 9 4 -3 4 -13 1 -22z m-352 -15 c-3 -5 -18 -10 -33 -11
-24 0 -25 -1 -7 -8 14 -6 4 -10 -38 -12 -33 -2 -61 0 -65 6 -3 6 -2 7 2 4 4
-4 24 -2 44 3 33 8 92 24 100 27 2 1 0 -3 -3 -9z m60 0 c-3 -5 -13 -10 -21
-10 -8 0 -14 -4 -14 -10 0 -13 13 -13 42 0 16 8 35 8 63 1 l40 -11 -48 5 c-26
3 -46 1 -43 -4 6 -9 -94 -22 -148 -20 -21 1 -15 4 20 9 31 5 60 16 73 29 21
21 47 29 36 11z m223 -6 c12 -9 -90 -13 -123 -5 -38 10 -37 10 20 6 42 -3 54
-1 40 5 -14 7 -8 8 20 3 22 -3 42 -7 43 -9z m-1701 -16 c-3 -8 -6 -5 -6 6 -1
11 2 17 5 13 3 -3 4 -12 1 -19z m1310 16 c-3 -3 -12 -4 -19 -1 -8 3 -5 6 6 6
11 1 17 -2 13 -5z m-150 -20 c-3 -3 -12 -4 -19 -1 -8 3 -5 6 6 6 11 1 17 -2
13 -5z m63 -14 c0 -5 -2 -10 -4 -10 -3 0 -8 5 -11 10 -3 6 -1 10 4 10 6 0 11
-4 11 -10z m-79 -22 c4 -6 25 -12 46 -11 l38 0 -33 -14 c-36 -15 -87 -8 -61 8
9 6 10 9 2 9 -6 0 -14 -4 -17 -8 -3 -5 -37 -15 -75 -22 -39 -7 -68 -16 -66
-20 3 -4 17 -5 32 -3 24 4 25 3 10 -7 -24 -15 -57 -3 -57 20 0 16 6 19 33 15
l32 -5 -32 10 c-18 6 -33 12 -33 14 0 2 33 3 73 1 39 -1 64 0 55 2 -28 7 -21
19 14 21 17 1 35 -3 39 -10z m154 2 c-3 -5 -15 -10 -26 -10 -11 0 -17 5 -14
10 3 6 15 10 26 10 11 0 17 -4 14 -10z m-1286 -80 c0 -9 -4 -8 -9 5 -5 11 -9
27 -9 35 0 9 4 8 9 -5 5 -11 9 -27 9 -35z m1120 36 c-11 -9 -69 -15 -64 -6 3
6 20 10 37 10 17 0 29 -2 27 -4z m-409 -31 c0 -10 -10 -15 -27 -15 -37 0 -55
-13 -48 -32 7 -18 -34 -29 -99 -26 l-41 1 45 8 c27 4 -23 7 -130 5 -106 -1
-157 1 -130 6 25 4 110 8 190 9 97 2 130 5 100 9 -51 8 -41 14 33 18 17 1 27
8 27 17 0 11 11 15 40 15 29 0 40 -4 40 -15z m136 1 c4 -11 19 -14 57 -11 50
4 51 4 12 -5 -41 -9 -105 -3 -105 9 0 23 28 27 36 7z m-794 -46 c6 0 9 -3 6
-6 -9 -8 -48 14 -48 27 0 6 7 3 16 -5 8 -9 20 -16 26 -16z m118 19 c-25 -7
-25 -7 5 -10 17 -1 44 -2 60 -2 17 1 22 -1 13 -4 -10 -2 -18 -11 -18 -19 0
-10 -14 -14 -52 -14 -38 0 -49 3 -38 10 8 5 24 10 35 11 14 0 11 3 -10 10 -16
4 -41 6 -55 4 -21 -5 -22 -4 -5 4 19 8 18 9 -5 13 -14 2 2 4 35 4 41 0 52 -2
35 -7z m179 -5 c9 -8 -55 -2 -74 6 -13 6 -5 7 25 3 25 -3 47 -7 49 -9z m156 6
c3 -5 -1 -10 -10 -10 -9 0 -13 5 -10 10 3 6 8 10 10 10 2 0 7 -4 10 -10z m334
-6 c3 -2 -8 -4 -25 -3 -16 0 -54 -6 -84 -15 -67 -19 -96 -19 -55 -1 l30 14
-30 2 c-27 2 -26 3 10 9 40 7 145 3 154 -6z m-422 0 c-3 -3 -12 -4 -19 -1 -8
3 -5 6 6 6 11 1 17 -2 13 -5z m-300 -30 c-3 -3 -12 -4 -19 -1 -8 3 -5 6 6 6
11 1 17 -2 13 -5z m353 -14 c-14 -4 -34 -8 -45 -8 -16 0 -15 2 5 8 14 4 34 8
45 8 16 0 15 -2 -5 -8z m-163 -6 c-3 -3 -12 -4 -19 -1 -8 3 -5 6 6 6 11 1 17
-2 13 -5z m66 -1 c-7 -2 -21 -2 -30 0 -10 3 -4 5 12 5 17 0 24 -2 18 -5z"/>
<path d="M2765 6100 c-3 -5 1 -10 9 -10 9 0 16 5 16 10 0 6 -4 10 -9 10 -6 0
-13 -4 -16 -10z"/>
<path d="M2351 5850 c-10 -5 -8 -9 4 -14 23 -8 35 -8 35 3 0 13 -25 20 -39 11z"/>
<path d="M2715 5309 c-11 -17 1 -21 15 -4 8 9 8 15 2 15 -6 0 -14 -5 -17 -11z"/>
<path d="M4766 4783 c-6 -14 -5 -15 5 -6 7 7 10 15 7 18 -3 3 -9 -2 -12 -12z"/>
<path d="M4471 3744 c-40 -33 -40 -66 -2 -105 25 -24 37 -29 80 -29 43 0 53 4
67 26 16 23 16 28 1 60 -17 35 -69 74 -99 74 -9 0 -30 -12 -47 -26z m111 -31
c34 -32 36 -58 6 -77 -29 -18 -70 -11 -103 20 -31 28 -32 48 -3 68 33 23 68
19 100 -11z"/>
<path d="M5537 2866 c-53 -14 -85 -40 -128 -103 -29 -41 -38 -83 -19 -83 5 0
44 22 86 50 42 27 106 59 142 70 68 21 82 32 82 63 0 14 -9 17 -57 16 -32 0
-80 -6 -106 -13z"/>
<path d="M5053 2518 c-13 -6 -23 -17 -23 -24 0 -10 7 -9 30 4 46 26 39 42 -7
20z"/>
<path d="M4343 2312 c-87 -31 -243 -148 -243 -183 0 -25 12 -22 130 31 106 48
168 66 273 80 45 7 83 12 84 13 0 1 4 19 8 40 l7 37 -103 0 c-73 -1 -119 -6
-156 -18z"/>
<path d="M1050 3871 c0 -5 7 -11 14 -14 10 -4 13 -1 9 9 -6 15 -23 19 -23 5z"/>
<path d="M1945 3360 c-3 -5 -1 -10 4 -10 6 0 11 5 11 10 0 6 -2 10 -4 10 -3 0
-8 -4 -11 -10z"/>
<path d="M1867 3308 c-10 -11 -16 -22 -13 -25 7 -7 46 26 46 39 0 13 -14 8
-33 -14z"/>
<path d="M5296 1912 c-2 -4 4 -8 14 -8 10 0 16 4 14 8 -3 4 -9 8 -14 8 -5 0
-11 -4 -14 -8z"/>
<path d="M3530 1836 c0 -2 8 -10 18 -17 15 -13 16 -12 3 4 -13 16 -21 21 -21
13z"/>
<path d="M2428 2603 c7 -3 16 -2 19 1 4 3 -2 6 -13 5 -11 0 -14 -3 -6 -6z"/>
<path d="M464 6078 c-187 -201 -450 -685 -461 -848 -3 -52 -2 -49 40 70 85
245 254 550 405 728 56 66 69 107 16 50z"/>
<path d="M0 343 l0 -343 357 0 c196 0 354 2 352 4 -2 2 -44 34 -94 71 -202
152 -436 382 -587 575 l-27 35 -1 -342z"/>
<path d="M7137 432 c-182 -180 -279 -271 -427 -400 l-35 -31 338 -1 337 0 0
320 c0 176 -1 320 -2 320 -2 0 -97 -93 -211 -208z"/>
</g>
</svg>
